<?xml version="1.0" encoding="UTF-8"?>
<svg id="Calque_2" data-name="Calque 2" xmlns="http://www.w3.org/2000/svg" viewBox="0 0 465.49 395.25">
  <defs>
    <style>
      .cls-1 {
        fill: #b3762b;
      }

      .cls-2 {
        fill: none;
        opacity: .6;
      }
    </style>
  </defs>
  <g id="Calque_1-2" data-name="Calque 1">
    <g class="cls-2">
      <path class="cls-1" d="m135.24,373.98c-2.92,10.98-11.53,12.69-20.22,14.29-1.26.23-2.54.01-3.13-1.05-2.28-4.12-6.27-6.49-9.51-9.62-.9-.87-1.98-2.12-1.16-2.95,3.24-3.28,3.45-9.1,9.29-10.28,6.12-1.24,10.34-8.93,8.48-14.93-1.37-4.42-4.04-8.44-4-13.3,0-.87-.38-1.84-1.26-1.96-3.6-.51-5.14-3.15-6.88-5.89-1.74-2.76-6.1-2.08-6.82,1.44-1.32,6.42-6.09,12.02-4.52,19.11.38,1.7-.7,2.84-2.23,3.47-2.06.85-3.89,1.33-5.94-.55-3.18-2.92-6.64-3.72-9.97.13-1.88,2.17-4.79,3.68-7.09,2.07-2.55-1.77-5.05-4.86-4.19-8.32,1.3-5.24-1.3-10.47.77-15.75.8-2.04-.27-5.35-2.16-6.9-4.61-3.77-2.33-6.55.87-9.2,2.1-1.74,4.09-2.77.46-5.21-1.95-1.3-2.49-4.87-1.66-6.44,3-5.66-1.79-8.61-4.54-9.77-8.4-3.56-9.71-10.26-10.04-17.82-.12-2.81-1.17-4.97-2.8-7.24-4.68-6.52-7.41-13.97-9.35-21.72-.36-1.44-.53-3.1-1.39-4.2-3.83-4.93-4.35-10.39-2.65-16.08,1.47-4.93-.49-10.91,4.51-14.82.73-.57.67-2.11-.08-2.79-7.1-6.37-10.96-16.26-21.13-19.35-2.72-.83-3.55-3.55-2.41-5.74,3.48-6.72-.39-12.81-1.18-19.13-.25-1.98-.88-3.94-.41-5.92.72-2.99-.72-5.25-2.4-7.3-7.5-9.16-11.19-19.37-9.48-31.34.51-3.59.36-7.25-.63-10.84-1.12-4.05.07-5.67,4.43-5.3,3.85.33,7.72.48,11.42-.32,2.46-.53,7.57-.73,3.25-5.72-1.2-1.39-.51-2.92.64-4.02.95-.89,2.08-1.71,3.27-2.2,7.86-3.19,12.48-9.02,14.34-17.18.5-2.18,1.38-4.34,3.24-5.49,7.51-4.64,9-12.65,11.59-20.06.22-.62.33-1.51.79-1.78,7.73-4.72,13.2-12.3,23.5-13.94,9.61-1.53,20.02-1.56,28.75-7.28,1.77-1.16,3.78-1.09,5.72-.03,1.66.91,2.98.84,4.25-.97,1.92-2.72,4.1-1.57,4.86.78.92,2.85,3.01,3.28,5.24,3.87,7.9,2.07,16.07,3.2,24.06,2.5,4.17-.36,8.79-1.51,12.97-3.58,3.07-1.52,7.13-1.34,10.42-.05,7.12,2.79,14.63,1.16,21.86,2.47.53.1,1.42-.32,1.75-.79,3.8-5.43,9.99-2.79,14.58-4.52,7.89-2.98,13.46,2.54,20.2,2.95,2.61.16,3.23,2.17,3.16,4.29-.1,3.19,1.48,5.76,2.75,8.45.91,1.93,2.25,3.41,4.6,3.16,2.15-.23,3.67-1.49,4.51-3.49.9-2.15,1.71-4.34,2.63-6.48.49-1.15,1.41-1.95,2.72-1.79,1.27.16,1.33,1.29,1.43,2.3.86,8.63,7.5,13.44,13.22,18.39,2.5,2.16,7.3,1.67,10.74-.72,4.42-3.07,8.77-3.9,13.11.1.12.11.28.26.42.26,10.03-.29,14.31,7.95,20.11,13.78,2.97,2.98,6.12,4.27,10.24,3.96,2.3-.18,4.65.08,6.95.35,1.93.23,3.01-.3,2.71-2.35-.4-2.8,1.15-4.35,3.31-5.58,1.54-.88,3.32-2.27,1.9-3.85-3.46-3.84-3.64-9.79-8.5-12.68-1.96-1.17-2.78-3.2-3.01-5.5-.13-1.3-.29-2.7-.88-3.83-.91-1.73-2.83-3.25-1.69-5.39,1.51-2.84,3.2.82,4.62.18,3.99-1.8,8.04-.84,12.11-.98,3.69-.13,3.96-4.18,4.5-6.98.82-4.22,2.13-5.09,5.89-2.46,3.59,2.51,8.88.56,10.69-3.45.9-2,2.02-3.84,3.68-5.27,5.28-4.54,7.33-3.67,9.49,1.87,1.8,4.62,5.47,8.45,10.82,9.24,3.25.48,5,1.99,6.31,4.8.83,1.78,2.21,3.32,3.45,4.89.61.77,1.59,2.05,2.14,1.93,4.15-.94,8.63-1.48,12.2-3.54,2.42-1.4,4.72-4.12,5.83-7.27.65-1.85,1.87-1.34,3.12-.34,3.51,2.82,6.79,2.24,9.61-1.32,3.02-3.8,6.87-6.81,9.12-11.4,1.5-3.07,4.31-2.05,6.72-.04,5.5,4.6,6.1,4.38,8.32-2.37,1.09-3.34,4.04-5.26,6.3-7.55,1.94-1.97,2.69.42,2.84,2.16.38,4.21-1.94,7.89-2.69,11.91-.92,4.96-1.07,10.89-7.38,13.67-2.49,1.1-3.72,4.54-3.04,7.91.46,2.3.77,5.01-.55,6.85-3.43,4.76-4.98,9.26-2.74,15.27,1.01,2.7.68,5.12,4.48,4.77,2.35-.22,3.12,1.43,3.39,3.46.18,1.3.92,2.68.66,3.86-2.71,12.64,8.99,19.78,11.6,30.63,2.87,11.92,3.19,22.89-2.01,33.98-3.89,8.3-6.83,16.85-6.72,26.23.04,3.16.59,6,2.71,8.31,2.41,2.63,3.1,5.67,3.29,9.14.44,7.75,2.89,15.39,1.17,23.26-.99,4.52-1.79,9.09-2.97,13.57-.7,2.66-3.41,3.47-5.49,4.81-5.76,3.7-5.74,3.67-11.65.05-2.34-1.43-4.78-.67-7.27-.25-7.14,1.19-11.55,5.95-15.48,11.41-5.87,8.17-13.12,13.21-23.78,10.7-2.73-.64-4.22,1.06-4.94,3.17-2.1,6.14-6.73,7.16-12.32,6.55-3.8-.42-7.62-1.03-11.29.69-.15.07-.31.13-.47.15-4.01.31-4.12.5-2.99,5.28.66,2.79-.35,5.38-1.56,7.66-1.63,3.07-2.24,5.8-.09,8.84.84,1.19,1.62,2.81.17,4.08-1.25,1.09-2.48.01-3.66-.54-.6-.28-1.28-.8-1.84-.69-10.22,1.91-17.79-5.92-27.11-7.36-2.55-.39-4.2-.18-5.13,2.4-.56,1.56-1.33,3.04-1.91,4.59-1.54,4.06-3.92,5.59-8.05,3.06-3.48-2.13-4.58.68-5.97,3.06-1.51,2.58-1.33,4.34,1.8,5.31,2.32.72,2.67,2.68,2.78,4.79.24,4.45.69,8.82.14,13.35-.96,7.86,1.93,12.44,9.08,15.67,1.71.77,2.27,2.26,3.28,3.55,2.42,3.1,4.67,6.21,9.6,5.85,4.26-.32,4.34,3.84,5.18,6.75.64,2.2,1.58,4.37-1.95,5.54-3.47,1.15-1.9,4.13-1,6.2,1.25,2.87,4.35,6.32,2.03,8.58-2.17,2.11-6.55.6-9.86-.05-3-.59-5.32-2.67-7.47-4.81-1.56-1.56-2.99-2.26-4.19.34-.97,2.1-2.67,2.37-4.6,1.64-1.91-.72-3.67-1.58-3.7-4.12-.06-4.8-3.96-7.52-6.39-10.95-1.52-2.15-4.13-1.37-6.38-.21-6.69,3.45-13.5,6.17-21.38,5.21-4.33-.53-6.27,3.16-8.03,6.36-.87,1.59-1.56,3.35-3.6,2.01-6.19-4.06-13.98-3.53-20.27-7.24-1.26-.74-1.82.43-2.46,1.05-1.62,1.55-3,3.35-1.74,5.72,1.49,2.8,1.78,6.03,3.56,8.76,1.75,2.68,1.09,5.06-1.93,6.6-6.16,3.12-11.88,6.6-14.76,13.47-1.15,2.73-4.16,2.76-6.91,3.07-5.67.63-11.16-1.97-16.89-.59-2.61.63-4.64,1.6-6.01,3.93-5.02,8.58-9.05,7-16.76,2.05-1.53-.98-2.55-2.62-4.72-1.93-2.57.81-3.57-.6-4.21-2.86-.97-3.41-2.89-4.24-6.75-3.73-7.93,1.04-15.95.87-23.28-3.42-1.97-1.15-2.57-3.4-5.04-5.27Z"/>
      <path class="cls-1" d="m57.56,359.64c.78,1.17.99,2.42-.28,3.11-1.44.79-2.66.03-3.49-1.05-1.37-1.78-2.77-2.06-5.12-1.78-4.79.58-3.66-4.23-4.71-6.69-.86-2.02.31-4.47,3.26-4.31,3.1.17,5.62-.28,6.84-3.58.3-.82,1.16-1.25,2.06-1.02,1.17.3,1.41,1.35,1.42,2.36.03,4.32.01,8.64.01,12.96Z"/>
    </g>
  </g>
</svg>