<?xml version="1.0" standalone="no"?>
<!DOCTYPE svg PUBLIC "-//W3C//DTD SVG 20010904//EN"
 "http://www.w3.org/TR/2001/REC-SVG-20010904/DTD/svg10.dtd">
<svg version="1.0" xmlns="http://www.w3.org/2000/svg"
 width="2481.000000pt" height="3508.000000pt" viewBox="0 0 2481.000000 3508.000000"
 preserveAspectRatio="xMidYMid meet">

<g transform="translate(0.000000,3508.000000) scale(0.100000,-0.100000)"
fill="#000000" stroke="none">
<path d="M21175 30850 c-302 -27 -566 -100 -840 -235 -465 -227 -830 -586
-1064 -1044 -127 -248 -204 -498 -242 -781 -17 -123 -16 -448 0 -570 47 -347
149 -642 323 -930 369 -613 990 -1016 1728 -1121 47 -7 175 -13 285 -13 283 0
471 30 733 116 182 60 420 175 572 276 568 380 937 978 1031 1672 16 122 17
447 0 570 -35 262 -111 511 -226 745 -301 614 -840 1059 -1499 1240 -238 65
-566 95 -801 75z m145 -173 c0 -87 8 -107 45 -107 37 0 45 20 45 107 0 97 -18
89 160 72 155 -14 337 -51 487 -100 67 -22 123 -42 123 -45 0 -2 -11 -32 -25
-66 -37 -91 -31 -128 22 -128 25 0 41 22 69 94 11 26 24 50 31 53 18 7 206
-93 333 -178 114 -76 310 -233 310 -248 0 -4 -25 -31 -55 -60 -57 -55 -66 -79
-39 -105 25 -26 42 -19 105 40 69 67 57 71 168 -61 94 -114 217 -300 282 -430
l50 -99 -53 -23 c-87 -37 -103 -48 -106 -71 -4 -28 14 -52 39 -52 10 0 49 12
85 26 78 32 71 38 113 -96 56 -176 90 -358 106 -562 l7 -88 -84 0 c-89 0 -108
-8 -108 -45 0 -37 19 -45 108 -45 l83 0 -6 -82 c-16 -211 -52 -396 -111 -577
-19 -58 -36 -106 -38 -108 -1 -2 -35 10 -74 26 -79 33 -109 31 -119 -7 -9 -36
4 -50 76 -81 36 -15 66 -32 68 -38 5 -15 -66 -155 -135 -267 -60 -97 -174
-251 -246 -331 l-45 -50 -59 58 c-67 66 -99 73 -116 24 -9 -25 -5 -32 47 -85
31 -32 57 -61 57 -64 0 -14 -200 -174 -310 -247 -63 -42 -165 -102 -226 -134
l-112 -57 -28 68 c-36 86 -41 92 -75 92 -50 0 -55 -32 -19 -119 16 -41 29 -75
28 -76 -2 -2 -37 -15 -78 -30 -159 -57 -398 -104 -602 -120 l-88 -7 0 85 c0
94 -9 111 -57 105 -28 -3 -28 -3 -33 -93 l-5 -90 -80 3 c-175 7 -380 46 -573
109 -89 29 -112 40 -109 52 3 9 16 44 29 78 27 73 20 98 -28 98 -26 0 -33 -7
-61 -65 -18 -36 -34 -69 -36 -75 -6 -14 -197 83 -310 157 -104 69 -218 155
-292 221 l-50 45 58 60 c60 64 67 81 41 106 -28 28 -56 18 -115 -40 l-56 -55
-55 63 c-81 94 -149 183 -211 278 -66 102 -169 298 -163 309 3 4 37 20 76 35
79 31 98 60 65 96 -23 26 -28 25 -110 -10 l-70 -29 -17 40 c-66 151 -138 514
-138 690 l0 39 83 0 c88 0 107 8 107 46 0 34 -20 43 -105 46 l-80 3 3 80 c4
112 19 221 48 355 29 131 92 330 105 330 5 0 34 -11 65 -25 84 -37 124 -30
124 22 0 26 -23 42 -93 69 -27 9 -51 23 -54 30 -6 15 62 150 135 268 60 97
174 251 246 331 l45 50 60 -59 c56 -55 63 -59 88 -50 49 17 42 51 -22 114 -30
30 -55 58 -55 61 0 15 199 173 314 251 65 43 168 104 227 134 109 54 109 54
118 32 34 -89 45 -115 54 -125 16 -21 55 -15 72 11 17 25 16 28 -41 162 -8 18
183 81 358 119 92 20 271 42 351 44 l57 1 0 -83z"/>
<path d="M21097 30455 c-641 -88 -1202 -493 -1492 -1078 -201 -405 -256 -857
-159 -1296 154 -691 673 -1251 1350 -1456 203 -62 319 -78 559 -79 239 -1 351
13 549 70 453 130 846 420 1106 815 327 497 408 1124 220 1699 -42 130 -176
397 -253 502 -193 268 -425 472 -698 613 -223 115 -426 180 -655 210 -139 18
-392 18 -527 0z m555 -101 c383 -61 728 -232 1007 -499 653 -625 764 -1635
262 -2381 -223 -333 -518 -569 -888 -714 -117 -46 -309 -95 -433 -110 -124
-15 -373 -12 -499 5 -693 97 -1286 592 -1509 1260 -298 891 115 1867 963 2275
221 106 413 158 690 184 73 7 313 -5 407 -20z"/>
<path d="M22442 29654 c-16 -11 -22 -25 -22 -54 0 -29 6 -43 22 -54 48 -34
108 -4 108 54 0 58 -60 88 -108 54z"/>
<path d="M22305 29530 c-22 -24 -24 -75 -4 -95 43 -42 119 -13 119 46 0 60
-76 92 -115 49z"/>
<path d="M21656 29246 c-564 -165 -562 -165 -534 -223 7 -15 22 -29 33 -31 11
-1 217 38 458 87 240 49 437 86 437 82 0 -3 -41 -200 -90 -436 l-90 -430 32
-27 c35 -31 64 -35 92 -15 14 10 51 147 147 538 71 288 129 536 129 550 0 34
-29 59 -66 58 -16 0 -263 -69 -548 -153z"/>
<path d="M21581 28986 l-354 -72 284 -271 c156 -150 285 -271 286 -269 4 4
144 678 141 681 -2 1 -162 -30 -357 -69z"/>
<path d="M20758 28723 c-15 -17 -278 -1079 -278 -1122 0 -52 13 -49 587 120
301 88 556 165 565 170 24 13 23 51 -1 73 -18 16 -43 13 -472 -63 -249 -44
-455 -78 -458 -75 -3 2 32 201 76 442 81 437 81 437 61 455 -11 9 -30 17 -43
17 -12 0 -29 -8 -37 -17z"/>
<path d="M21287 28637 c-129 -80 -104 -264 42 -308 55 -16 106 -4 150 37 50
44 65 82 59 145 -9 88 -65 141 -155 146 -48 3 -65 0 -96 -20z m157 -73 c19
-20 26 -37 26 -66 0 -50 -13 -74 -52 -94 -85 -44 -178 49 -134 134 21 40 41
51 92 52 31 0 48 -6 68 -26z"/>
<path d="M20925 28598 c-3 -18 -32 -175 -64 -348 -33 -173 -57 -317 -55 -319
3 -3 168 24 369 60 l364 64 -236 225 c-130 124 -267 253 -304 288 l-68 63 -6
-33z"/>
<path d="M20357 27522 c-22 -25 -21 -75 1 -95 42 -39 115 -8 115 48 0 57 -79
88 -116 47z"/>
<path d="M20245 27405 c-14 -13 -25 -35 -25 -48 0 -31 39 -67 72 -67 30 0 68
41 68 72 0 25 -44 68 -70 68 -11 0 -32 -11 -45 -25z"/>
<path d="M6045 27486 l-240 -143 -518 -184 c-285 -101 -515 -185 -510 -186 4
-1 593 96 1308 216 715 120 1291 220 1280 224 -47 14 -1037 217 -1058 216 -12
0 -130 -65 -262 -143z"/>
<path d="M9365 26245 c-1152 -297 -1460 -375 -1475 -375 -8 0 -31 19 -52 43
l-37 42 -1 -295 -1 -295 -608 -455 -608 -455 -916 -150 c-504 -82 -915 -150
-914 -151 1 -1 403 -66 893 -144 l892 -141 903 525 904 525 6 -242 5 -242 142
-627 142 -626 0 -147 0 -147 53 6 c28 4 69 9 90 12 l37 6 0 -722 0 -722 -68 3
-69 4 -1289 -1431 c-709 -786 -1296 -1439 -1304 -1449 -8 -11 66 52 165 139
2205 1941 3048 2682 3056 2684 5 2 9 -148 9 -367 0 -303 2 -371 13 -371 19 0
27 409 27 1442 0 461 3 838 8 838 4 0 68 7 142 15 74 8 147 15 163 15 l27 0 0
-1155 0 -1155 40 0 40 0 0 1160 c0 638 3 1160 8 1161 4 0 85 8 180 17 l172 18
0 -2483 0 -2483 40 0 40 0 0 2485 c0 1367 1 2485 3 2486 8 3 339 34 341 32 1
-2 1 -1128 -2 -2503 l-5 -2500 42 0 41 0 1 1943 c1 1068 5 2196 8 2507 l6 565
120 12 c66 6 148 14 183 17 l62 7 0 -2526 0 -2525 40 0 40 0 0 2529 0 2528
123 12 c67 6 146 14 176 18 l53 6 -7 -2547 -8 -2546 40 0 40 0 8 2548 c4 1401
8 2548 9 2549 7 8 182 17 236 13 l65 -5 3 -2552 2 -2553 40 0 40 0 0 2544 c0
1400 3 2547 8 2549 8 5 311 -21 330 -28 9 -3 12 -520 12 -2535 l0 -2531 38 3
37 3 3 2528 c2 2398 3 2527 20 2527 32 0 287 -21 310 -26 l22 -4 0 -2515 0
-2515 40 0 40 0 0 2508 c0 1380 2 2511 4 2513 3 3 67 -1 143 -7 76 -7 153 -13
171 -13 l32 -1 0 -2500 0 -2500 40 0 40 0 0 2495 c0 2415 1 2495 18 2495 10 0
1494 -72 3297 -160 1803 -88 3279 -159 3279 -158 3 7 -13 3630 -16 3633 -2 1
-460 -55 -1018 -126 -558 -70 -1503 -189 -2100 -264 -597 -75 -1708 -215
-2470 -310 l-1385 -174 -1380 456 c-759 251 -1384 457 -1390 458 -5 1 -311
-75 -680 -170z m-85 -4049 c0 -415 -3 -757 -7 -759 -5 -3 -80 1 -168 9 -88 7
-170 13 -182 14 l-23 0 0 725 c0 572 3 727 13 730 14 5 276 32 330 34 l37 1 0
-754z"/>
<path d="M13580 20499 l0 -2429 40 0 40 0 -2 2416 -3 2417 -37 13 -38 13 0
-2430z"/>
<path d="M14010 20420 l0 -2350 40 0 40 0 0 2338 0 2338 -33 12 c-18 7 -36 12
-40 12 -4 0 -7 -1057 -7 -2350z"/>
<path d="M14450 20340 l0 -2270 40 0 40 0 0 2259 0 2259 -31 11 c-18 6 -36 11
-40 11 -5 0 -9 -1021 -9 -2270z"/>
<path d="M14870 20266 l0 -2196 40 0 40 0 0 2184 0 2184 -24 6 c-13 3 -31 9
-40 12 -15 6 -16 -185 -16 -2190z"/>
<path d="M15340 20181 l0 -2111 40 0 40 0 0 2099 0 2099 -24 6 c-13 3 -31 9
-40 12 -15 6 -16 -178 -16 -2105z"/>
<path d="M15770 20104 l0 -2034 40 0 40 0 0 2018 0 2019 -40 16 -40 15 0
-2034z"/>
<path d="M16210 20025 l0 -1955 40 0 40 0 0 1940 c0 1067 -2 1940 -4 1940 -2
0 -20 7 -40 15 l-36 15 0 -1955z"/>
<path d="M16630 19945 l0 -1875 40 0 40 0 0 1864 0 1864 -31 11 c-18 6 -36 11
-40 11 -5 0 -9 -844 -9 -1875z"/>
<path d="M17090 19864 l0 -1794 40 0 40 0 -2 1781 -3 1782 -37 13 -38 13 0
-1795z"/>
<path d="M17510 19789 l0 -1719 40 0 40 0 0 1703 0 1704 -40 16 -40 15 0
-1719z"/>
<path d="M17950 19710 l0 -1640 40 0 40 0 0 1625 c0 894 -2 1625 -4 1625 -2 0
-20 7 -40 15 l-36 15 0 -1640z"/>
<path d="M18370 19630 l0 -1560 40 0 40 0 0 1549 0 1549 -31 11 c-18 6 -36 11
-40 11 -5 0 -9 -702 -9 -1560z"/>
<path d="M18800 19560 l0 -1480 40 0 40 0 0 1465 0 1465 -36 15 c-20 8 -38 15
-40 15 -2 0 -4 -666 -4 -1480z"/>
<path d="M19230 19530 l0 -1351 40 23 40 23 0 1317 0 1316 -31 11 c-18 6 -36
11 -40 11 -5 0 -9 -608 -9 -1350z"/>
<path d="M19661 19672 l0 -1057 40 80 39 79 -2 965 -3 964 -37 13 -38 13 1
-1057z"/>
<path d="M8602 19368 l-1392 -1303 572 -3 c521 -2 573 -1 590 14 11 10 18 12
18 6 0 -7 16 -12 40 -12 l40 0 0 56 0 56 173 190 172 191 3 -246 2 -247 40 0
40 0 0 294 0 294 183 201 182 202 3 -495 2 -496 40 0 40 0 0 543 0 542 173
191 172 192 3 -734 2 -734 40 0 40 0 0 781 0 780 110 122 110 122 0 398 c0
218 -1 397 -3 397 -2 0 -630 -586 -1395 -1302z"/>
<path d="M7499 16785 c-45 -25 -49 -54 -49 -406 l0 -328 -45 -31 c-57 -39 -75
-66 -75 -110 1 -54 47 -100 103 -100 25 0 25 -2 32 -107 13 -205 33 -391 44
-412 32 -59 120 -63 166 -9 25 29 27 37 21 88 -12 105 -36 455 -36 517 0 53 3
64 21 73 11 7 22 10 24 8 1 -2 10 -39 20 -83 26 -121 91 -316 149 -451 69
-158 162 -331 186 -344 48 -26 127 -2 148 45 20 43 15 61 -47 178 -111 209
-196 438 -246 661 -14 62 -25 118 -25 124 0 5 78 71 173 146 94 74 209 167
255 206 l82 71 0 50 c0 67 -30 99 -93 99 -49 0 -44 3 -243 -161 -149 -122
-395 -309 -407 -309 -5 0 -7 124 -5 276 l3 276 -28 24 c-32 28 -87 31 -128 9z"/>
<path d="M13539 16733 l-32 -27 6 -276 c4 -151 12 -340 17 -420 12 -172 38
-470 45 -520 l5 -35 -30 35 c-79 90 -418 585 -488 712 -33 58 -47 101 -62 176
-37 194 -47 217 -107 228 -41 8 -89 -11 -110 -43 -22 -33 -13 -197 15 -275 31
-87 47 -241 47 -468 0 -221 -12 -343 -52 -543 -21 -109 -23 -132 -13 -158 25
-59 120 -80 164 -36 40 40 90 327 104 597 l7 145 49 -70 c273 -388 433 -599
531 -702 38 -39 46 -43 89 -43 36 0 52 5 71 25 31 31 32 75 5 275 -42 316 -74
742 -86 1165 l-7 230 -28 27 c-38 38 -95 39 -140 1z"/>
<path d="M10773 16253 c-33 -6 -73 -59 -73 -96 0 -34 -27 -221 -35 -248 -4
-13 -12 -10 -43 15 -88 74 -159 155 -197 226 -35 65 -45 77 -78 87 -81 27
-153 -43 -129 -124 31 -103 170 -277 273 -344 41 -26 57 -31 89 -26 22 3 40 3
40 1 0 -2 -18 -50 -41 -107 -48 -123 -111 -241 -190 -359 -61 -90 -70 -123
-48 -172 7 -14 27 -32 46 -41 72 -34 128 13 240 202 136 231 220 466 258 721
21 141 20 207 -5 232 -20 20 -64 41 -78 39 -4 -1 -17 -4 -29 -6z"/>
<path d="M16103 16230 c-12 -5 -27 -18 -32 -29 -6 -11 -13 -98 -16 -193 -5
-191 -35 -429 -53 -428 -4 1 -32 47 -63 103 -99 181 -243 409 -283 448 -64 63
-142 62 -179 0 -40 -69 -46 -929 -6 -1014 13 -29 55 -57 84 -57 30 0 82 30 92
53 6 14 8 132 5 317 -2 162 -3 304 0 315 5 25 151 -230 278 -486 51 -101 99
-192 107 -201 11 -12 31 -18 62 -18 96 0 118 46 105 224 -10 154 -8 192 16
334 40 235 54 531 28 587 -21 46 -89 67 -145 45z"/>
<path d="M8494 16223 c-43 -8 -62 -44 -83 -153 -47 -241 -69 -561 -53 -779 9
-122 9 -125 41 -153 35 -31 76 -36 120 -14 40 21 53 58 45 127 l-7 59 122 0
c92 0 130 4 153 16 25 13 32 14 39 2 5 -7 46 -75 90 -151 45 -75 91 -144 102
-152 36 -25 92 -19 129 14 58 52 52 72 -118 356 -83 138 -221 373 -309 523
-87 151 -168 280 -179 287 -26 17 -64 24 -92 18z m188 -572 c43 -73 78 -135
78 -137 0 -2 -46 -4 -102 -4 l-101 0 7 139 c3 77 9 147 13 157 5 15 7 14 16
-2 6 -11 46 -79 89 -153z"/>
<path d="M9922 16210 c-31 -29 -38 -64 -78 -370 -19 -151 -37 -276 -39 -278
-2 -2 -31 29 -64 70 -81 96 -222 308 -291 435 -34 63 -63 106 -78 112 -55 26
-123 1 -141 -51 -10 -28 -1 -110 54 -518 37 -267 71 -498 77 -513 23 -60 111
-76 159 -28 37 38 37 63 0 326 -25 177 -29 219 -18 204 41 -58 182 -225 247
-292 76 -78 89 -87 122 -87 39 0 92 36 102 68 3 9 30 207 61 439 60 459 60
459 4 489 -40 20 -91 18 -117 -6z"/>
<path d="M11234 16216 c-23 -10 -37 -29 -61 -82 -90 -203 -181 -508 -222 -751
-31 -181 -28 -209 29 -238 36 -19 63 -19 99 -1 33 17 48 48 57 116 l7 50 56 0
c31 0 111 7 176 15 66 8 123 15 127 15 3 0 18 -33 33 -72 33 -89 70 -128 121
-128 19 0 44 5 55 10 22 12 49 61 49 89 0 30 -88 244 -185 451 -47 102 -111
248 -141 325 -73 184 -74 186 -111 202 -39 16 -50 16 -89 -1z m116 -523 c34
-76 64 -143 67 -149 3 -7 -21 -14 -69 -18 -40 -4 -93 -9 -117 -13 l-44 -6 5
41 c7 51 79 282 88 282 4 0 35 -62 70 -137z"/>
<path d="M16603 16179 c-69 -22 -146 -75 -194 -134 -45 -57 -103 -185 -130
-290 -32 -124 -32 -302 -1 -389 47 -127 144 -234 265 -292 140 -67 242 -53
338 45 62 63 94 133 105 226 4 35 11 55 20 55 23 0 71 49 78 80 7 37 -15 94
-41 109 -12 6 -83 8 -184 6 l-164 -4 -27 -31 c-64 -70 -12 -170 88 -170 36 0
33 -55 -6 -108 -36 -50 -55 -52 -127 -16 -94 46 -156 137 -169 246 -12 101 40
287 107 384 35 52 70 78 126 94 36 11 49 11 86 -4 76 -29 127 -16 156 41 62
122 -133 214 -326 152z"/>
<path d="M13991 16153 c-28 -28 -29 -34 -35 -144 -12 -233 -28 -899 -22 -924
7 -28 59 -65 91 -65 30 0 583 166 600 180 26 21 38 76 25 115 -14 44 -44 65
-90 65 -19 0 -122 -27 -228 -59 l-193 -59 3 107 3 106 125 12 c69 6 129 12
133 12 4 1 19 13 32 27 31 33 33 86 5 131 -25 42 -46 46 -169 34 -57 -6 -107
-11 -112 -11 -10 0 -12 139 -3 218 l7 52 46 0 c66 0 220 19 258 31 42 14 63
44 63 92 0 49 -13 73 -52 93 -27 14 -41 15 -102 4 -68 -11 -197 -9 -308 6 -43
5 -50 3 -77 -23z"/>
<path d="M14970 16161 c-115 -37 -193 -141 -242 -319 -30 -110 -30 -353 0
-464 56 -206 161 -321 293 -321 135 0 240 111 296 314 26 92 26 387 0 479 -38
139 -101 238 -182 285 -46 27 -124 40 -165 26z m94 -233 c67 -89 97 -323 62
-480 -18 -77 -60 -164 -88 -182 -50 -30 -118 117 -134 291 -12 130 27 307 83
373 32 38 46 38 77 -2z"/>
</g>
</svg>
