<?xml version="1.0" encoding="UTF-8"?>
<svg id="Calque_2" data-name="Calque 2" xmlns="http://www.w3.org/2000/svg" viewBox="0 0 231.32 455.56">
  <defs>
    <style>
      .cls-1 {
        fill: #b3762b;
      }

      .cls-2 {
        fill: none;
        opacity: .6;
      }
    </style>
  </defs>
  <g id="Calque_1-2" data-name="Calque 1">
    <g class="cls-2">
      <path class="cls-1" d="m96.7,129.88c1.54-1.91,3.42-3.34,3.24-6.05-.09-1.4.86-2.43,2-3.03,5.23-2.75,9.34-6.93,13.81-10.65.82-.68,1.75-1.65,2.78-.61,1.47,1.48,2.06.74,2.65-.72.65-1.61,2.09-2.52,3.31-3.63,2.76-2.52,5.26-5.21,5.77-9.17.12-.9.53-1.69,1.25-2.24,1.15-.87,2.38-2.22,3.85-1.42,1.72.93.7,2.62.28,3.93-.62,1.94-1.48,3.81-2.19,5.73-.4,1.07-.49,2.34.59,2.87.97.47,1.41-.78,1.89-1.43,3.1-4.15,4.64-9.19,7.56-13.48.99-1.45-.42-3.34-.85-5-.37-1.43-1.08-2.89-.13-4.22,2.57-3.61,1.88-7.59,1.57-11.55-.06-.75-.51-1.69.38-2.1,1.11-.52,1.46.57,1.92,1.27.62.94.87,2.35,2.41,2.14,1.25-.17,1.61-1.32,1.99-2.31.59-1.56-.77-2-1.66-2.65-1.06-.77-1.49-1.83-1.3-3.06.34-2.31.61-4.65,1.26-6.88.77-2.67,3.28-3.34,5.56-1.68,1.72,1.25,2.71,3,3.33,5.02.44,1.43,1,3.01,2.89,2.63,1.85-.37,1.34-2.1,1.41-3.39.07-1.26-.1-2.56.09-3.8.41-2.67-.55-4.47-2.87-5.79-1.8-1.03-2.53-2.52-.66-4.2.84-.76,1.71-1.87,2.99-1.38,1.15.44,1.07,1.78,1.2,2.8.2,1.54.11,3.12.34,4.66.19,1.29.98,2.18,2.43,1.88,1.6-.33,1.53-1.44,1.15-2.71-.35-1.18-.9-2.39-.22-3.68,1.09.05,1.46.95,1.84,1.67.72,1.37,1.17,3.17,3.21,2.69,2.26-.53,5.04-1.15,5.37-3.82.64-5.09,2.85-9.67,4.01-14.48,1.16-4.81-.95-9.89-4.35-13.93-.49-.59-1.16-1.03-1.64-1.63-.2-.25-.28-.77-.17-1.08.19-.56.77-.57,1.23-.39,1.26.5,2.51,1.04,3.72,1.64,1.07.53,1.84.5,2.26-.79.81-2.48,2.72-3.97,4.78-5.31.95-.62,1.93-1.39,1.3-2.57-1.92-3.67,1.6-5.17,2.93-7.47.62-1.07,1.7-.26,2.36.59,1.37,1.75,1.92,3.81,2.22,5.95.44,3.13,1.32,5.81,4.77,6.97,2.28.76,2.28,2.92,2.05,4.93-.4,3.51,2.24,7.39,5.74,8.26.81.2,1.15.76,1.19,1.46.09,2,1.27,3.43,2.38,4.91.88,1.18,1.85,2.47,1.76,3.94-.33,5.69,2.29,10.62,3.98,15.74,2.13,6.45,3.24,13.01,3.71,19.74.14,2.03-.11,4.11,1.15,5.93.19.28.21.76.16,1.12-1.4,9.04,1.22,17.13,6.05,24.56,2.47,3.79,3.2,7.61,2.11,11.93-1.56,6.19-3.82,12.04-7.49,17.31-1.18,1.7-2.13,1.76-3.7.33-2.72-2.48-3.97-5.71-5.21-8.99-.62-1.64-1.26-3.28-1.72-4.96-.56-2.09-1.29-3.62-3.95-3.05-2.52.54-4.1,1.63-3.8,4.5.18,1.74,0,3.54.72,5.19,1.22,2.83,1.8,5.68,1.14,8.79-.49,2.3.58,4,2.77,4.85,1.57.61,2.06,1.66,1.59,3.22-.5,1.65-.37,3.25.12,4.89,1.07,3.58-.85,6.47-2.43,9.33-1.1,2-1.83,3.66.48,5.24.44.3,1,.81.65,1.46-.32.58-1.03.54-1.58.45-3.88-.64-5.73,1.5-6.72,4.87-.11.37-.27.74-.46,1.07-3.14,5.48-4.22,11.03-1.52,17.16,1.41,3.18,1.26,6.64-.74,9.82-.54.86-.74,2.02-.81,3.07-.53,7.37-2.59,14.3-5.49,21.07-4.22,9.84-7.58,20.01-10.98,30.16-1.18,3.52-2.31,6.99-2.81,10.68-.55,4.01-2.3,7.65-3.92,11.28-3.47,7.78-5.71,15.94-7.76,24.16-2.4,9.64-5.13,19.19-8.18,28.64-1.94,6.02-4.91,11.63-6.98,17.63-3.26,9.45-4.18,19.39-6.79,28.97-1.76,6.48-4.82,12.56-5.62,19.31-.46,3.93-2.12,7.43-3.96,10.9-3.71,7-5.52,14.76-8.43,22.08-.65,1.63-1.23,3.28-1.92,4.89-.42.98-.77,2.18-1.54,2.78-4.72,3.71-9.75,7.66-15.87,7.52-6.46-.15-12.3.98-17.96,3.8-4.35,2.16-8.72,4.28-12.47,7.46-1.85,1.57-4.15,2.08-6.51,2.19-2.32.12-4.67-.09-6.91.76-.57.22-1.3.33-1.66-.13-2.26-2.92-6.45-3.25-8.5-6.45-.65-1.01-1.78-1.45-2.9-1.85-2.76-1-5.63-1.83-8.52-1.65-4.18.26-6.93-1.23-8.58-5.12-.71-1.66-2.65-1.91-4.17-2.41-2.07-.69-3.29-1.94-3.74-4.03-.75-3.44-3.35-6.18-3.13-10.12.11-1.97-2.44-3.43-4.09-4.7-3.54-2.73-4.55-6.29-4.42-10.53.16-5.36.06-10.72-1.4-15.94-.41-1.47.43-2.1,1.34-2.9,3.38-2.97,3.36-4.89-.18-7.68-1.32-1.04-1.66-2.33-1.59-3.85.17-3.71-.85-6.8-3.89-9.25-4.6-3.71-5.3-9.22-6.46-14.6-1.1-5.12-1.44-10.31-2.15-15.46-.07-.54.02-1.22.3-1.68,2.4-4.07,2.87-9.14,6.51-12.56.61-.57.54-1.44.54-2.22,0-1.27-.05-2.53-.04-3.8.05-4.91,1.91-7.22,6.73-7.27,3.32-.04,4.75-1.55,5.43-4.44.18-.76.56-1.5.59-2.25.22-5.23,2.33-9.56,6.1-13.11.21-.2.47-.43.53-.68,1.89-8.03,8.64-13.15,12.04-20.29,1.28-2.68,2.8-5-.33-7.4-1.17-.9-1.01-2.37-.39-3.51,3.3-6.01,1.64-11.1-2.51-15.96-2.64-3.09-3.6-6.78-3.13-10.9.61-5.33-1.2-10.01-4.43-14.12-1.41-1.79-1.95-3.66-1.97-5.92-.06-5.92-1.38-11.82-.17-17.76.19-.93-.28-1.73-.9-2.37-3.4-3.49-2.79-7.35-.62-11.01,4.26-7.2,8.74-14.27,13.21-21.34.82-1.3,1.55-2.45.93-4.03-.14-.35-.27-.92-.1-1.13,2.22-2.66.68-5.14-.03-7.83-1.02-3.87.54-5.46,4.53-5.32,2.04.07,4.08.03,6.11.22,4.51.42,7.88-1.46,10.56-4.92.95-1.23,1.91-2.54,3.4-3.12,1.63-.62,3.19-.78,3.07,1.8-.04.78-.14,1.77.69,2.07,1.02.38,1.18-.78,1.53-1.37,1.12-1.87,2.52-2.77,4.82-2.18,2.11.54,3.41-.24,3.13-2.73-.26-2.35,1.07-2.95,3.17-3.09,4.37-.3,8.8.08,12.87-2.5,2.57-1.63,4.07-.19,4.5,3.9Z"/>
      <path class="cls-1" d="m210.05,173.29c-1.1-.22-1.08-.93-.85-1.59,1.41-4.03,3.21-7.88,5.47-11.51.31-.5.74-1.01,1.4-.68.51.25.39.8.26,1.29-1.13,4.27-3.34,8.03-5.51,11.81-.18.3-.55.49-.77.68Z"/>
    </g>
  </g>
</svg>