<?xml version="1.0" standalone="no"?>
<!DOCTYPE svg PUBLIC "-//W3C//DTD SVG 20010904//EN"
 "http://www.w3.org/TR/2001/REC-SVG-20010904/DTD/svg10.dtd">
<svg version="1.0" xmlns="http://www.w3.org/2000/svg"
 width="2481.000000pt" height="3508.000000pt" viewBox="0 0 2481.000000 3508.000000"
 preserveAspectRatio="xMidYMid meet">

<g transform="translate(0.000000,3508.000000) scale(0.100000,-0.100000)"
fill="#000000" stroke="none">
<path d="M21175 30850 c-302 -27 -566 -101 -840 -235 -476 -233 -851 -605
-1079 -1070 -112 -228 -182 -451 -222 -705 -25 -158 -25 -510 -1 -665 20 -130
65 -319 102 -424 14 -41 22 -78 18 -82 -8 -7 -4171 -1073 -4233 -1084 -44 -7
-103 -23 -155 -40 -22 -7 -58 -16 -79 -19 -53 -9 -337 -84 -345 -91 -5 -5 -41
-545 -36 -552 0 -1 1182 249 2625 556 l2624 558 111 -115 c377 -393 855 -633
1415 -713 47 -7 175 -13 285 -13 283 0 471 30 733 116 182 60 420 175 572 276
568 380 937 978 1031 1672 16 122 17 447 0 570 -35 262 -111 511 -226 745
-301 614 -840 1059 -1499 1240 -238 65 -566 95 -801 75z m145 -173 c0 -87 8
-107 45 -107 37 0 45 20 45 107 0 97 -18 89 160 72 155 -14 337 -51 487 -100
67 -22 123 -42 123 -45 0 -2 -11 -32 -25 -66 -37 -91 -31 -128 22 -128 25 0
41 22 69 94 11 26 24 50 31 53 18 7 206 -93 333 -178 114 -76 310 -233 310
-248 0 -4 -25 -31 -55 -60 -57 -55 -66 -79 -39 -105 25 -26 42 -19 105 40 69
67 57 71 168 -61 94 -114 217 -300 282 -430 l50 -99 -53 -23 c-87 -37 -103
-48 -106 -71 -4 -28 14 -52 39 -52 10 0 49 12 85 26 78 32 71 38 113 -96 56
-176 90 -358 106 -562 l7 -88 -84 0 c-89 0 -108 -8 -108 -45 0 -37 19 -45 108
-45 l83 0 -6 -82 c-16 -211 -52 -396 -111 -577 -19 -58 -36 -106 -38 -108 -1
-2 -35 10 -74 26 -79 33 -109 31 -119 -7 -9 -36 4 -50 76 -81 36 -15 66 -32
68 -38 5 -15 -66 -155 -135 -267 -60 -97 -174 -251 -246 -331 l-45 -50 -59 58
c-67 66 -99 73 -116 24 -9 -25 -5 -32 47 -85 31 -32 57 -61 57 -64 0 -14 -200
-174 -310 -247 -63 -42 -165 -102 -226 -134 l-112 -57 -28 68 c-36 86 -41 92
-75 92 -50 0 -55 -32 -19 -119 16 -41 29 -75 28 -76 -2 -2 -37 -15 -78 -30
-159 -57 -398 -104 -602 -120 l-88 -7 0 85 c0 94 -9 111 -57 105 -28 -3 -28
-3 -33 -93 l-5 -90 -80 3 c-175 7 -380 46 -573 109 -89 29 -112 40 -109 52 3
9 16 44 29 78 27 73 20 98 -28 98 -26 0 -33 -7 -61 -65 -18 -36 -34 -69 -36
-75 -6 -14 -197 83 -310 157 -104 69 -218 155 -292 221 l-50 45 58 60 c60 64
67 81 41 106 -28 28 -56 18 -115 -40 l-56 -55 -55 63 c-81 94 -149 183 -211
278 -66 102 -169 298 -163 309 3 4 37 20 76 35 79 31 98 60 65 96 -23 26 -28
25 -110 -10 l-70 -29 -17 40 c-66 151 -138 514 -138 690 l0 39 83 0 c88 0 107
8 107 46 0 34 -20 43 -105 46 l-80 3 3 80 c4 112 19 221 48 355 29 131 92 330
105 330 5 0 34 -11 65 -25 84 -37 124 -30 124 22 0 26 -23 42 -93 69 -27 9
-51 23 -54 30 -6 15 62 150 135 268 60 97 174 251 246 331 l45 50 60 -59 c56
-55 63 -59 88 -50 49 17 42 51 -22 114 -30 30 -55 58 -55 61 0 15 199 173 314
251 65 43 168 104 227 134 109 54 109 54 118 32 34 -89 45 -115 54 -125 16
-21 55 -15 72 11 17 25 16 28 -41 162 -8 18 183 81 358 119 92 20 271 42 351
44 l57 1 0 -83z"/>
<path d="M21097 30455 c-641 -88 -1202 -493 -1492 -1078 -201 -405 -256 -857
-159 -1296 154 -691 673 -1251 1350 -1456 203 -62 319 -78 559 -79 239 -1 351
13 549 70 453 130 846 420 1106 815 327 497 408 1124 220 1699 -42 130 -176
397 -253 502 -193 268 -425 472 -698 613 -223 115 -426 180 -655 210 -139 18
-392 18 -527 0z m555 -101 c383 -61 728 -232 1007 -499 653 -625 764 -1635
262 -2381 -223 -333 -518 -569 -888 -714 -117 -46 -309 -95 -433 -110 -124
-15 -373 -12 -499 5 -693 97 -1286 592 -1509 1260 -298 891 115 1867 963 2275
221 106 413 158 690 184 73 7 313 -5 407 -20z"/>
<path d="M22442 29654 c-16 -11 -22 -25 -22 -54 0 -29 6 -43 22 -54 48 -34
108 -4 108 54 0 58 -60 88 -108 54z"/>
<path d="M22305 29530 c-22 -24 -24 -75 -4 -95 43 -42 119 -13 119 46 0 60
-76 92 -115 49z"/>
<path d="M21656 29246 c-564 -165 -562 -165 -534 -223 7 -15 22 -29 33 -31 11
-1 217 38 458 87 240 49 437 86 437 82 0 -3 -41 -200 -90 -436 l-90 -430 32
-27 c35 -31 64 -35 92 -15 14 10 51 147 147 538 71 288 129 536 129 550 0 34
-29 59 -66 58 -16 0 -263 -69 -548 -153z"/>
<path d="M21581 28986 l-354 -72 284 -271 c156 -150 285 -271 286 -269 4 4
144 678 141 681 -2 1 -162 -30 -357 -69z"/>
<path d="M20758 28723 c-15 -17 -278 -1079 -278 -1122 0 -52 13 -49 587 120
301 88 556 165 565 170 24 13 23 51 -1 73 -18 16 -43 13 -472 -63 -249 -44
-455 -78 -458 -75 -3 2 32 201 76 442 81 437 81 437 61 455 -11 9 -30 17 -43
17 -12 0 -29 -8 -37 -17z"/>
<path d="M21287 28637 c-129 -80 -104 -264 42 -308 55 -16 106 -4 150 37 50
44 65 82 59 145 -9 88 -65 141 -155 146 -48 3 -65 0 -96 -20z m157 -73 c19
-20 26 -37 26 -66 0 -50 -13 -74 -52 -94 -85 -44 -178 49 -134 134 21 40 41
51 92 52 31 0 48 -6 68 -26z"/>
<path d="M20925 28598 c-3 -18 -32 -175 -64 -348 -33 -173 -57 -317 -55 -319
3 -3 168 24 369 60 l364 64 -236 225 c-130 124 -267 253 -304 288 l-68 63 -6
-33z"/>
<path d="M20357 27522 c-22 -25 -21 -75 1 -95 42 -39 115 -8 115 48 0 57 -79
88 -116 47z"/>
<path d="M20245 27405 c-14 -13 -25 -35 -25 -48 0 -31 39 -67 72 -67 30 0 68
41 68 72 0 25 -44 68 -70 68 -11 0 -32 -11 -45 -25z"/>
<path d="M4736 22742 c3 -2176 9 -3646 15 -3706 44 -457 337 -814 771 -940
231 -67 642 -86 1441 -67 751 19 828 22 838 41 5 8 72 127 149 263 78 137 140
253 138 258 -2 4 -527 414 -1168 910 -641 495 -1164 906 -1163 912 0 7 129
1113 284 2459 l284 2447 216 228 c120 125 214 231 211 234 -7 6 -227 67 -271
75 -13 3 -49 13 -80 24 -68 23 -345 100 -380 106 -14 2 -44 11 -66 19 -43 16
-284 83 -375 105 -30 7 -62 17 -70 21 -8 5 -91 29 -185 54 -93 25 -206 57
-250 70 -144 43 -289 84 -317 89 l-28 5 6 -3607z"/>
<path d="M7140 25331 c-140 -148 -256 -276 -258 -283 -1 -7 -114 -983 -252
-2168 -137 -1185 -251 -2169 -254 -2186 -4 -31 9 -42 1001 -809 829 -641 1007
-775 1018 -764 7 8 547 952 1200 2099 653 1147 1333 2340 1511 2651 178 311
324 572 326 579 3 12 -87 44 -162 56 -19 3 -50 12 -70 20 -39 15 -302 90 -344
98 -35 6 -67 15 -91 26 -11 5 -96 30 -190 55 -93 25 -206 57 -250 70 -125 38
-284 82 -350 99 -33 8 -114 31 -180 51 -66 19 -169 49 -230 65 -60 16 -180 50
-265 74 -85 25 -180 51 -210 57 -30 6 -59 14 -65 19 -5 4 -89 28 -185 54 -96
26 -211 58 -255 71 -110 33 -278 81 -350 99 -33 8 -145 40 -250 71 -104 30
-205 58 -224 61 -19 3 -46 10 -60 16 -27 11 -292 88 -301 88 -3 0 -120 -121
-260 -269z"/>
<path d="M19540 25460 c-261 -21 -436 -34 -715 -55 -110 -8 -380 -29 -600 -46
-699 -53 -777 -59 -925 -69 -80 -5 -201 -14 -270 -20 -168 -14 -527 -40 -620
-46 -41 -3 -124 -9 -185 -15 -60 -5 -175 -14 -255 -19 -80 -5 -199 -14 -265
-20 -66 -5 -214 -17 -330 -25 -115 -9 -295 -23 -400 -31 -104 -9 -253 -19
-330 -24 -77 -5 -196 -14 -265 -20 -144 -12 -494 -39 -590 -45 -110 -7 -223
-15 -272 -21 l-48 -6 -2 -271 -3 -270 -400 1 c-220 1 -432 0 -472 -4 l-72 -6
-6 -42 c-3 -22 -97 -1436 -210 -3141 -112 -1705 -206 -3124 -209 -3152 l-5
-53 1167 1 c642 0 2200 6 3462 13 l2296 13 64 32 c171 87 370 243 485 381 117
141 177 253 218 404 l21 81 4 2055 c2 1130 0 2592 -3 3248 -7 1092 -9 1192
-24 1191 -9 -1 -117 -10 -241 -19z"/>
<path d="M13813 16586 c-58 -26 -64 -53 -53 -233 5 -87 11 -259 12 -383 l3
-225 -158 -9 c-110 -6 -162 -5 -169 2 -7 7 -13 133 -16 364 -5 392 -4 389 -71
409 -33 10 -45 9 -77 -7 -66 -32 -66 -31 -61 -399 3 -181 8 -337 12 -346 5
-13 -2 -18 -34 -23 -51 -8 -91 -53 -91 -102 0 -64 30 -93 105 -103 l39 -6 27
-190 c54 -379 64 -412 134 -435 30 -10 41 -9 73 7 60 29 66 63 37 219 -30 159
-60 383 -53 390 7 6 310 22 321 17 4 -2 7 -65 7 -139 0 -158 16 -317 35 -355
31 -59 123 -63 170 -7 22 26 26 38 21 69 -11 70 -27 324 -25 405 2 44 -1 86
-6 93 -4 8 -7 46 -6 85 3 110 -19 712 -29 790 -6 51 -14 75 -32 92 -30 30 -75
38 -115 20z"/>
<path d="M9215 16442 c-35 -18 -58 -67 -51 -107 13 -67 72 -93 219 -94 l67 -1
0 -641 c0 -420 4 -647 10 -660 13 -24 61 -49 95 -49 41 0 82 26 94 61 7 21 11
144 11 352 0 309 1 320 18 304 30 -27 73 -30 127 -9 28 11 106 36 174 56 68
20 141 46 163 57 58 30 120 91 148 146 21 41 25 62 25 143 0 88 -3 101 -34
164 -62 127 -188 221 -358 268 -72 20 -103 22 -381 22 -227 1 -309 -2 -327
-12z m627 -207 c37 -7 87 -22 111 -33 128 -57 200 -199 136 -268 -34 -37 -68
-52 -201 -90 -65 -19 -143 -45 -173 -59 l-55 -24 0 245 0 244 58 0 c31 0 87
-7 124 -15z"/>
<path d="M12653 16399 c-23 -4 -55 -15 -71 -23 -45 -23 -97 -89 -115 -146 -64
-199 -59 -845 8 -1051 48 -143 193 -229 390 -229 125 0 218 28 245 73 37 60
17 127 -46 153 -28 12 -40 11 -86 -3 -96 -29 -204 -17 -270 29 -19 13 -33 36
-42 71 -53 185 -51 778 2 887 l17 35 80 -3 c134 -4 200 6 229 35 34 33 42 82
22 121 -9 17 -24 35 -34 40 -22 12 -275 20 -329 11z"/>
<path d="M11990 16313 c-30 -25 -31 -29 -28 -82 3 -31 23 -146 46 -256 37
-179 105 -606 97 -613 -5 -5 -119 179 -339 545 -119 200 -225 367 -236 373
-27 14 -105 12 -145 -4 -54 -23 -58 -39 -63 -287 -5 -260 15 -997 29 -1050 5
-20 17 -43 28 -53 42 -38 138 -28 162 17 8 14 7 134 -1 411 -7 215 -10 431 -8
480 l3 90 149 -250 c83 -137 187 -304 232 -371 93 -139 233 -313 269 -337 52
-34 147 -5 161 50 9 33 -27 396 -62 634 -24 164 -101 575 -124 661 -13 48 -43
69 -96 69 -31 0 -51 -7 -74 -27z"/>
<path d="M10737 16279 c-59 -14 -108 -44 -153 -91 -117 -122 -171 -328 -161
-612 4 -124 10 -172 35 -267 16 -63 38 -133 49 -155 25 -52 133 -185 182 -223
162 -129 315 -78 453 150 177 293 168 694 -23 979 -32 47 -79 106 -104 129
-81 75 -193 111 -278 90z m151 -262 c137 -134 204 -400 157 -622 -26 -123
-138 -325 -181 -325 -22 0 -93 69 -121 119 -14 25 -34 58 -45 74 -57 82 -86
379 -54 549 22 115 52 193 93 236 28 30 37 34 65 28 21 -4 53 -26 86 -59z"/>
<path d="M14355 16132 c-23 -11 -53 -33 -67 -50 -35 -41 -82 -166 -103 -272
-10 -47 -24 -99 -31 -117 -9 -20 -14 -68 -14 -135 0 -494 188 -722 595 -722
181 0 256 38 317 161 41 84 49 193 23 345 -49 296 -138 500 -278 640 -133 134
-333 201 -442 150z m195 -224 c100 -48 202 -183 255 -338 35 -102 78 -306 79
-375 2 -116 -35 -155 -148 -155 -174 0 -281 60 -340 191 -34 73 -54 199 -38
234 7 14 12 69 12 121 0 102 19 215 52 302 20 52 21 54 51 48 17 -4 52 -16 77
-28z"/>
</g>
</svg>
