<?xml version="1.0" standalone="no"?>
<!DOCTYPE svg PUBLIC "-//W3C//DTD SVG 20010904//EN"
 "http://www.w3.org/TR/2001/REC-SVG-20010904/DTD/svg10.dtd">
<svg version="1.0" xmlns="http://www.w3.org/2000/svg"
 width="2481.000000pt" height="3508.000000pt" viewBox="0 0 2481.000000 3508.000000"
 preserveAspectRatio="xMidYMid meet">

<g transform="translate(0.000000,3508.000000) scale(0.100000,-0.100000)"
fill="#000000" stroke="none">
<path d="M9360 30818 c0 -42 41 -671 44 -675 0 -1 460 -38 1021 -82 561 -45
1044 -84 1073 -87 l52 -6 0 -252 0 -252 1459 -555 1458 -555 802 -763 801
-762 0 -727 -1 -727 -32 35 c-17 20 -94 104 -170 188 -76 84 -141 152 -145
152 -4 0 -46 -38 -94 -83 l-88 -82 265 -293 265 -293 0 -1248 0 -1249 -67 -6
c-316 -29 -3372 -212 -3379 -203 -1 1 74 313 165 692 l166 690 70 17 c39 9
105 24 149 33 l78 18 -43 42 c-24 23 -714 660 -1534 1415 -819 755 -1504 1386
-1522 1403 l-31 29 -99 -32 c-54 -18 -102 -36 -106 -40 -5 -4 459 -684 1031
-1511 571 -827 1068 -1550 1105 -1606 l66 -102 -51 -37 c-40 -30 -52 -35 -58
-23 -5 8 -33 48 -63 89 -31 41 -533 766 -1117 1611 l-1063 1537 -170 -57 c-94
-32 -172 -62 -174 -68 -2 -6 194 -748 435 -1649 441 -1649 472 -1765 472
-1782 0 -10 -107 -38 -115 -30 -9 9 -36 106 -487 1783 -242 902 -441 1641
-442 1642 -3 3 -356 -114 -361 -119 -3 -2 67 -749 154 -1659 88 -910 162
-1695 166 -1746 l6 -91 -58 -4 c-32 -2 -59 -4 -60 -3 -8 4 -41 330 -178 1750
-85 886 -157 1633 -160 1662 l-6 51 -112 -37 c-107 -36 -112 -39 -115 -67 -1
-16 -33 -753 -72 -1639 -70 -1630 -76 -1760 -86 -1827 l-6 -38 -59 0 -59 0 6
183 c3 100 36 884 74 1742 37 858 67 1561 66 1563 -2 1 -52 -15 -112 -35
l-109 -38 -651 -1535 c-358 -844 -664 -1564 -680 -1600 -17 -36 -36 -81 -44
-100 -7 -19 -16 -38 -20 -42 -9 -11 -110 33 -110 48 0 6 12 38 26 70 15 33 30
71 34 85 4 14 292 698 640 1518 347 821 630 1494 628 1497 -2 2 -40 -8 -84
-23 l-79 -26 -980 -1425 c-539 -783 -992 -1438 -1007 -1456 -15 -17 -28 -39
-28 -49 0 -11 14 -98 30 -195 17 -98 55 -316 84 -487 29 -170 52 -312 50 -313
-1 -2 -44 -5 -96 -7 -51 -2 -167 -8 -258 -13 -91 -5 -176 -9 -190 -9 -14 0
-181 -9 -373 -19 l-347 -18 2 -1485 3 -1486 23 -80 c116 -400 427 -696 816
-776 89 -18 266 -19 6681 -19 6395 0 6593 1 6680 19 359 74 652 326 781 670
74 196 68 23 71 2115 l4 1878 -78 -6 c-43 -4 -778 -51 -1633 -106 -855 -55
-1588 -102 -1627 -105 l-73 -7 0 2229 0 2229 -225 214 c-124 117 -222 216
-218 220 6 5 1250 356 1516 428 10 2 216 262 459 576 243 314 444 575 448 579
4 5 31 -1 59 -14 l52 -22 305 101 c281 92 306 99 301 79 -70 -313 -81 -394
-81 -632 0 -193 11 -306 45 -473 123 -604 485 -1140 1005 -1487 147 -99 387
-214 566 -273 262 -86 450 -116 733 -116 283 0 471 30 733 116 182 60 420 175
572 276 568 380 937 978 1031 1672 16 122 17 447 0 570 -59 437 -240 861 -512
1197 -528 651 -1390 977 -2214 837 -226 -38 -425 -103 -640 -209 -241 -118
-419 -243 -621 -437 l-101 -97 -928 389 -927 390 -767 -1 -766 0 -854 -547
-855 -547 -77 -307 -77 -308 323 0 322 0 203 84 c179 74 206 82 224 71 12 -7
248 -142 526 -300 278 -158 506 -289 508 -290 3 -3 80 -828 77 -832 -2 -5
-826 -233 -840 -233 -9 0 -249 222 -534 494 l-519 495 -1386 527 -1386 528 0
155 0 156 638 184 c350 101 715 206 810 234 l172 50 0 193 0 194 -2070 0
-2070 0 0 -42z m11960 -141 c0 -87 8 -107 45 -107 37 0 45 20 45 107 0 97 -18
89 160 72 155 -14 337 -51 487 -100 67 -22 123 -42 123 -45 0 -2 -11 -32 -25
-66 -37 -91 -31 -128 22 -128 25 0 41 22 69 94 11 26 24 50 31 53 18 7 206
-93 333 -178 114 -76 310 -233 310 -248 0 -4 -25 -31 -55 -60 -57 -55 -66 -79
-39 -105 25 -26 42 -19 105 40 69 67 57 71 168 -61 94 -114 217 -300 282 -430
l50 -99 -53 -23 c-87 -37 -103 -48 -106 -71 -4 -28 14 -52 39 -52 10 0 49 12
85 26 78 32 71 38 113 -96 56 -176 90 -358 106 -562 l7 -88 -84 0 c-89 0 -108
-8 -108 -45 0 -37 19 -45 108 -45 l83 0 -6 -82 c-16 -211 -52 -396 -111 -577
-19 -58 -36 -106 -38 -108 -1 -2 -35 10 -74 26 -79 33 -109 31 -119 -7 -9 -36
4 -50 76 -81 36 -15 66 -32 68 -38 5 -15 -66 -155 -135 -267 -60 -97 -174
-251 -246 -331 l-45 -50 -59 58 c-67 66 -99 73 -116 24 -9 -25 -5 -32 47 -85
31 -32 57 -61 57 -64 0 -14 -200 -174 -310 -247 -63 -42 -165 -102 -226 -134
l-112 -57 -28 68 c-36 86 -41 92 -75 92 -50 0 -55 -32 -19 -119 16 -41 29 -75
28 -76 -2 -2 -37 -15 -78 -30 -159 -57 -398 -104 -602 -120 l-88 -7 0 85 c0
94 -9 111 -57 105 -28 -3 -28 -3 -33 -93 l-5 -90 -80 3 c-175 7 -380 46 -573
109 -89 29 -112 40 -109 52 3 9 16 44 29 78 27 73 20 98 -28 98 -26 0 -33 -7
-61 -65 -18 -36 -34 -69 -36 -75 -6 -14 -197 83 -310 157 -104 69 -218 155
-292 221 l-50 45 58 60 c60 64 67 81 41 106 -28 28 -56 18 -115 -40 l-56 -55
-55 63 c-81 94 -149 183 -211 278 -66 102 -169 298 -163 309 3 4 37 20 76 35
79 31 98 60 65 96 -23 26 -28 25 -110 -10 l-70 -29 -17 40 c-66 151 -138 514
-138 690 l0 39 83 0 c88 0 107 8 107 46 0 34 -20 43 -105 46 l-80 3 3 80 c4
112 19 221 48 355 29 131 92 330 105 330 5 0 34 -11 65 -25 84 -37 124 -30
124 22 0 26 -23 42 -93 69 -27 9 -51 23 -54 30 -6 15 62 150 135 268 60 97
174 251 246 331 l45 50 60 -59 c56 -55 63 -59 88 -50 49 17 42 51 -22 114 -30
30 -55 58 -55 61 0 15 199 173 314 251 65 43 168 104 227 134 109 54 109 54
118 32 34 -89 45 -115 54 -125 16 -21 55 -15 72 11 17 25 16 28 -41 162 -8 18
183 81 358 119 92 20 271 42 351 44 l57 1 0 -83z m-3954 -1197 c401 -187 732
-344 737 -349 8 -8 -708 -948 -772 -1012 -21 -22 -70 -39 -261 -92 -129 -36
-236 -64 -237 -63 -2 2 -21 207 -43 457 -23 250 -42 459 -44 464 -2 6 -225
136 -495 290 -326 186 -487 283 -479 288 15 10 850 356 860 357 4 0 334 -153
734 -340z m1904 -7493 l0 -533 -1292 -514 c-711 -282 -1300 -514 -1308 -514
-15 -1 -2102 1735 -2095 1742 3 4 1434 111 1478 112 15 0 17 -14 17 -145 l0
-145 168 2 167 3 3 156 2 156 313 23 c553 40 2532 187 2540 189 4 0 7 -239 7
-532z m-13650 -867 c90 -104 153 -168 169 -173 36 -10 3575 -547 3609 -547 15
0 765 149 1668 331 l1640 331 665 -328 c365 -180 667 -330 671 -333 4 -3 -513
-363 -1149 -799 l-1157 -792 -3078 0 -3077 0 -21 68 c-12 37 -131 431 -266
875 l-245 808 51 97 c282 528 353 653 365 640 7 -7 76 -87 155 -178z"/>
<path d="M21097 30455 c-641 -88 -1202 -493 -1492 -1078 -201 -405 -256 -857
-159 -1296 154 -691 673 -1251 1350 -1456 203 -62 319 -78 559 -79 239 -1 351
13 549 70 453 130 846 420 1106 815 327 497 408 1124 220 1699 -42 130 -176
397 -253 502 -193 268 -425 472 -698 613 -223 115 -426 180 -655 210 -139 18
-392 18 -527 0z m555 -101 c383 -61 728 -232 1007 -499 653 -625 764 -1635
262 -2381 -223 -333 -518 -569 -888 -714 -117 -46 -309 -95 -433 -110 -124
-15 -373 -12 -499 5 -693 97 -1286 592 -1509 1260 -298 891 115 1867 963 2275
221 106 413 158 690 184 73 7 313 -5 407 -20z"/>
<path d="M22442 29654 c-16 -11 -22 -25 -22 -54 0 -29 6 -43 22 -54 48 -34
108 -4 108 54 0 58 -60 88 -108 54z"/>
<path d="M22305 29530 c-22 -24 -24 -75 -4 -95 43 -42 119 -13 119 46 0 60
-76 92 -115 49z"/>
<path d="M21656 29246 c-564 -165 -562 -165 -534 -223 7 -15 22 -29 33 -31 11
-1 217 38 458 87 240 49 437 86 437 82 0 -3 -41 -200 -90 -436 l-90 -430 32
-27 c35 -31 64 -35 92 -15 14 10 51 147 147 538 71 288 129 536 129 550 0 34
-29 59 -66 58 -16 0 -263 -69 -548 -153z"/>
<path d="M21581 28986 l-354 -72 284 -271 c156 -150 285 -271 286 -269 4 4
144 678 141 681 -2 1 -162 -30 -357 -69z"/>
<path d="M20758 28723 c-15 -17 -278 -1079 -278 -1122 0 -52 13 -49 587 120
301 88 556 165 565 170 24 13 23 51 -1 73 -18 16 -43 13 -472 -63 -249 -44
-455 -78 -458 -75 -3 2 32 201 76 442 81 437 81 437 61 455 -11 9 -30 17 -43
17 -12 0 -29 -8 -37 -17z"/>
<path d="M21287 28637 c-129 -80 -104 -264 42 -308 55 -16 106 -4 150 37 50
44 65 82 59 145 -9 88 -65 141 -155 146 -48 3 -65 0 -96 -20z m157 -73 c19
-20 26 -37 26 -66 0 -50 -13 -74 -52 -94 -85 -44 -178 49 -134 134 21 40 41
51 92 52 31 0 48 -6 68 -26z"/>
<path d="M20925 28598 c-3 -18 -32 -175 -64 -348 -33 -173 -57 -317 -55 -319
3 -3 168 24 369 60 l364 64 -236 225 c-130 124 -267 253 -304 288 l-68 63 -6
-33z"/>
<path d="M20357 27522 c-22 -25 -21 -75 1 -95 42 -39 115 -8 115 48 0 57 -79
88 -116 47z"/>
<path d="M20245 27405 c-14 -13 -25 -35 -25 -48 0 -31 39 -67 72 -67 30 0 68
41 68 72 0 25 -44 68 -70 68 -11 0 -32 -11 -45 -25z"/>
<path d="M7612 25812 c-23 -12 -345 -417 -1094 -1377 l-1060 -1360 137 -13
c115 -12 139 -12 150 0 11 11 1837 2660 1889 2741 21 32 21 32 -22 9z"/>
<path d="M8906 16926 c-106 -40 -158 -125 -183 -298 -21 -151 -24 -784 -4
-973 34 -335 132 -520 325 -611 169 -80 378 -40 455 87 l17 29 32 -45 c60 -86
168 -131 247 -105 81 27 152 125 162 224 5 46 2 55 -22 84 -53 63 -155 34
-179 -52 -14 -47 -25 -48 -53 -6 -54 78 -67 218 -33 334 22 73 22 79 7 111
-31 66 -112 82 -164 33 -57 -54 -89 -272 -59 -401 19 -82 19 -84 4 -69 -21 21
-84 14 -115 -12 -44 -36 -68 -46 -117 -46 -85 0 -159 45 -211 129 -39 61 -44
91 -17 91 29 0 116 56 155 99 120 133 187 417 174 740 -10 255 -59 456 -135
555 -69 91 -194 136 -286 102z m114 -218 c27 -29 55 -108 77 -215 14 -68 18
-136 18 -298 0 -231 -14 -330 -62 -438 -23 -52 -90 -127 -112 -127 -19 0 -26
142 -26 485 1 341 13 554 35 595 14 26 44 25 70 -2z"/>
<path d="M16568 16910 l-31 -31 7 -97 c5 -86 29 -660 39 -969 3 -62 3 -113 0
-113 -2 0 -32 9 -66 21 -92 31 -202 24 -289 -19 -169 -83 -275 -278 -266 -492
6 -159 67 -259 192 -317 53 -24 73 -28 151 -28 107 0 168 19 250 76 l58 40 31
-30 c81 -78 207 -94 315 -40 68 34 92 64 109 132 5 23 19 81 31 128 12 48 21
97 21 109 0 34 -62 90 -99 90 -73 0 -97 -31 -132 -170 -28 -108 -35 -122 -62
-118 l-22 3 -7 390 c-10 602 -42 1363 -60 1408 -13 34 -55 57 -103 57 -27 0
-44 -8 -67 -30z m-74 -1403 c26 -17 26 -18 26 -143 0 -135 -8 -166 -56 -223
-76 -90 -235 -94 -281 -7 -24 44 -21 156 6 227 25 65 76 129 123 153 42 21
144 18 182 -7z"/>
<path d="M14434 16901 c-40 -17 -61 -57 -69 -128 -24 -227 -157 -480 -327
-626 -57 -49 -186 -137 -200 -137 -4 0 -8 180 -8 400 l0 400 -28 31 c-52 59
-148 37 -173 -38 -9 -29 -11 -185 -7 -685 6 -658 1 -826 -27 -933 -9 -32 -17
-60 -18 -62 -2 -1 -22 7 -45 19 -39 19 -46 19 -80 7 -28 -11 -42 -25 -60 -61
-21 -41 -22 -51 -12 -90 20 -76 98 -138 173 -138 45 0 130 44 160 83 38 51 67
112 89 195 18 67 22 114 26 355 l4 279 47 -7 c53 -8 134 -45 171 -78 76 -67
110 -146 134 -310 38 -257 118 -390 280 -466 140 -66 305 -68 356 -4 28 36 27
94 -4 129 -21 26 -31 28 -122 34 -55 4 -108 11 -119 15 -50 21 -103 67 -127
112 -36 67 -45 100 -68 253 -16 111 -27 150 -59 216 -42 89 -115 172 -194 221
l-48 30 55 43 c243 186 431 543 439 832 2 57 -1 71 -19 88 -23 24 -87 35 -120
21z"/>
<path d="M7188 16591 c-79 -26 -136 -61 -190 -119 -178 -190 -169 -496 19
-662 26 -22 112 -74 193 -115 210 -106 285 -167 332 -274 25 -54 27 -144 5
-187 -70 -136 -313 -166 -508 -62 -103 54 -177 146 -164 201 3 12 23 31 43 42
67 36 79 113 27 169 -44 47 -142 28 -207 -41 -74 -78 -90 -211 -39 -318 107
-226 443 -370 723 -311 144 31 262 118 316 233 24 53 27 69 27 173 0 112 -1
117 -37 193 -74 154 -173 244 -384 348 -78 38 -159 82 -181 98 -56 40 -83 101
-83 182 2 161 96 259 252 259 92 0 162 -28 238 -95 45 -41 69 -55 91 -55 72 0
118 56 104 126 -14 76 -158 184 -292 219 -78 21 -214 18 -285 -4z"/>
<path d="M9579 16241 c-49 -50 -36 -136 26 -165 44 -21 89 -11 121 27 22 26
25 38 21 76 -7 59 -41 91 -98 91 -31 0 -47 -7 -70 -29z"/>
<path d="M17479 16161 c-39 -39 -41 -106 -5 -148 49 -57 155 -27 171 48 22
101 -94 171 -166 100z"/>
<path d="M10321 15819 c-18 -6 -50 -21 -71 -35 -36 -24 -40 -25 -69 -10 -42
22 -123 20 -171 -4 -61 -31 -130 -138 -130 -201 0 -40 56 -99 94 -99 33 0 81
24 96 47 8 13 9 -29 4 -162 -11 -296 -12 -280 14 -308 13 -14 35 -27 49 -30
38 -7 91 11 108 37 10 14 29 119 49 265 24 168 40 250 52 269 l18 27 8 -30 c8
-25 17 -305 18 -508 0 -51 4 -62 29 -88 23 -23 38 -29 71 -29 92 0 110 36 110
224 0 176 36 371 60 325 4 -8 15 -66 24 -129 30 -204 72 -324 133 -382 105
-100 289 -60 270 59 -9 50 -46 85 -99 92 -53 7 -55 13 -92 231 -15 85 -33 179
-42 208 -18 63 -71 126 -121 143 -33 11 -121 8 -153 -4 -10 -4 -22 5 -35 25
-11 18 -34 40 -52 51 -38 22 -125 30 -172 16z"/>
<path d="M17150 15792 c-36 -37 -45 -101 -37 -272 7 -152 30 -285 68 -405 34
-107 72 -158 143 -191 103 -48 208 -24 298 68 61 63 89 136 95 253 5 87 5 92
-22 123 -23 27 -34 32 -70 32 -72 0 -95 -28 -111 -135 -13 -87 -30 -126 -67
-149 -28 -18 -50 6 -73 80 -37 119 -54 247 -54 412 l0 154 -29 29 c-41 41
-101 41 -141 1z"/>
<path d="M11379 15733 c-178 -59 -305 -292 -271 -495 21 -120 65 -184 160
-230 60 -30 76 -33 152 -33 71 1 95 5 143 27 32 15 70 37 84 48 l26 21 26 -25
c95 -88 244 -85 329 8 57 62 77 140 46 184 -53 75 -161 59 -189 -29 -9 -26
-41 -24 -60 5 -28 42 -32 79 -24 199 9 113 8 119 -15 165 -70 139 -251 207
-407 155z m174 -204 c31 -14 40 -72 28 -177 -14 -118 -80 -180 -179 -169 -70
8 -87 32 -87 125 0 68 4 84 31 132 39 69 82 100 140 100 24 0 54 -5 67 -11z"/>
<path d="M15159 15721 c-195 -62 -333 -288 -316 -520 10 -150 69 -246 185
-303 62 -31 74 -33 162 -32 110 0 181 23 257 81 l45 35 32 -31 c66 -64 179
-88 279 -60 112 31 194 189 137 262 -50 63 -141 53 -175 -19 -22 -48 -33 -56
-64 -48 -29 6 -46 25 -67 73 -19 41 -20 236 -3 274 24 54 -37 170 -122 233
-96 70 -234 92 -350 55z m207 -210 c36 -22 44 -53 44 -176 0 -111 -38 -192
-113 -239 -24 -15 -49 -20 -104 -21 -69 0 -74 2 -105 33 -31 30 -33 38 -36
110 -3 60 1 89 17 133 29 76 72 134 118 158 51 27 137 28 179 2z"/>
<path d="M8174 15661 c-63 -16 -123 -53 -177 -109 -97 -102 -132 -200 -125
-351 5 -110 26 -165 86 -227 58 -60 111 -79 222 -79 83 0 102 3 155 28 33 16
69 37 81 48 20 19 21 19 40 -2 29 -33 114 -69 163 -69 127 0 230 90 231 203 0
81 -105 131 -164 79 -10 -10 -25 -30 -33 -45 -19 -38 -50 -32 -75 13 -17 31
-18 49 -13 172 5 124 3 142 -14 176 -26 50 -101 119 -159 145 -51 22 -165 32
-218 18z m146 -216 l30 -16 0 -94 c0 -114 -22 -172 -79 -211 -42 -28 -123 -33
-158 -9 -30 21 -47 78 -39 132 7 51 38 128 64 157 48 54 124 71 182 41z"/>
</g>
</svg>
